<?xml version="1.0" standalone="no"?>
<!DOCTYPE svg PUBLIC "-//W3C//DTD SVG 20010904//EN"
 "http://www.w3.org/TR/2001/REC-SVG-20010904/DTD/svg10.dtd">
<svg version="1.0" xmlns="http://www.w3.org/2000/svg"
 width="256.000000pt" height="256.000000pt" viewBox="0 0 256.000000 256.000000"
 preserveAspectRatio="xMidYMid meet">
<metadata>
Created by potrace 1.14, written by Peter Selinger 2001-2017
</metadata>
<g transform="translate(0.000000,256.000000) scale(0.100000,-0.100000)"
fill="#000000" stroke="none">
<path d="M380 2554 c-8 -3 -25 -19 -37 -37 l-23 -33 0 -1202 c0 -842 3 -1208
11 -1225 6 -13 23 -31 39 -40 26 -16 105 -17 911 -17 l883 0 32 22 c18 13 35
32 38 43 3 11 6 559 6 1218 0 1101 -1 1201 -17 1227 -9 16 -27 33 -40 39 -17
8 -291 11 -906 10 -485 -1 -889 -3 -897 -5z"/>
</g>
</svg>
